<svg width="1920" height="960" viewBox="0 0 1920 960" fill="none" xmlns="http://www.w3.org/2000/svg">
<mask id="mask0_301_3" style="mask-type:alpha" maskUnits="userSpaceOnUse" x="0" y="0" width="1920" height="960">
<rect width="1920" height="960" fill="#5D69F6"/>
</mask>
<g mask="url(#mask0_301_3)">
<path d="M306.24 756.78C135.744 689.295 31.04 775.525 0 827.076V960H1920V805.348C1913.09 783.364 1862.08 782.981 1837.44 785.537C1783.68 594.331 1611.52 642.388 1532.16 690.318C1502.21 664.755 1453.12 663.903 1432.32 666.672C1379.33 586.918 1266.88 586.151 1217.28 595.737C1075.2 528.252 973.76 607.24 940.8 655.169C759.552 576.438 625.92 667.098 581.76 722.27C442.752 638.426 340.16 710.341 306.24 756.78Z" fill="#505EF6"/>
<path d="M306.24 834.379C135.744 766.895 31.04 853.125 0 904.676V960.274H1920V882.948C1913.09 860.964 1862.08 860.581 1837.44 863.137C1783.68 671.931 1611.52 719.988 1532.16 767.917C1502.21 742.355 1453.12 741.503 1432.32 744.272C1379.33 664.518 1266.88 663.751 1217.28 673.337C1075.2 605.852 973.76 684.84 940.8 732.769C759.552 654.037 625.92 744.698 581.76 799.87C442.752 716.026 340.16 787.941 306.24 834.379Z" fill="#9A80F7"/>
<path d="M418.637 898.198C260.495 886.074 139.253 960.794 98.3994 999.67L1920 1005.6V918.624C1915.26 909.136 1877.17 907.203 1858.72 907.423C1811.28 791.455 1643.25 794.53 1565.17 810.563C1549.35 796.331 1500.01 793.212 1477.31 793.431C1433.49 748.824 1330.91 760.213 1284.47 771.687C1166.65 719.502 1057.47 775.421 1017.6 809.904C1003.37 801.47 981.36 806.39 972.135 809.904C843.249 756.137 731.297 811.222 691.432 845.485C562.547 803.315 455.867 863.056 418.637 898.198Z" fill="#D798F9"/>
<path d="M94.6373 970.198C-63.5049 958.074 -184.747 1032.79 -225.601 1071.67L1596 1077.6V990.624C1591.26 981.136 1553.17 979.203 1534.72 979.423C1487.28 863.455 1319.25 866.53 1241.17 882.563C1225.35 868.331 1176.01 865.212 1153.31 865.431C1109.49 820.824 1006.91 832.213 960.466 843.687C842.65 791.502 733.466 847.421 693.601 881.904C679.368 873.47 657.36 878.39 648.135 881.904C519.249 828.137 407.297 883.222 367.432 917.485C238.547 875.315 131.867 935.056 94.6373 970.198Z" fill="#F2AEFA"/>
<path d="M1111.14 902.335C1016.01 807.973 880.184 863.017 824.163 902.335C681.068 888.705 633.499 935.099 627.601 960L1920 959.999V939.03C1891.7 868.783 1785.03 875.248 1735.23 887.262C1628.3 780.843 1462.01 828.942 1392.23 866.293C1253.85 820.161 1147.18 871.099 1111.14 902.335Z" fill="#F5C5FB"/>
<path d="M557.693 603.12L556.101 602.967L557.693 603.12ZM344.817 437.877L344.085 436.454L344.817 437.877ZM370.861 647.23L372.02 648.334L370.861 647.23ZM329.381 554.468C328.52 554.666 327.983 555.525 328.181 556.386C328.379 557.247 329.238 557.785 330.099 557.586L329.381 554.468ZM-17.8849 787.168C-17.0132 787.313 -16.1889 786.724 -16.0437 785.852C-15.8985 784.981 -16.4873 784.156 -17.359 784.011L-17.8849 787.168ZM-7.20326 785.524C-8.07924 785.408 -8.88354 786.024 -8.99971 786.9C-9.11587 787.776 -8.49992 788.58 -7.62393 788.696L-7.20326 785.524ZM-6.80537 788.804C-5.92911 788.918 -5.12627 788.3 -5.01218 787.424C-4.89808 786.548 -5.51593 785.745 -6.39219 785.631L-6.80537 788.804ZM3.89562 786.824C3.01659 786.734 2.23079 787.373 2.1405 788.252C2.0502 789.132 2.68959 789.917 3.56862 790.008L3.89562 786.824ZM4.36833 790.089C5.24753 790.178 6.03211 789.537 6.12073 788.658C6.20936 787.778 5.56848 786.994 4.68928 786.905L4.36833 790.089ZM15.1512 787.835C14.2702 787.767 13.5005 788.426 13.4321 789.307C13.3637 790.188 14.0225 790.957 14.9035 791.026L15.1512 787.835ZM15.687 791.086C16.5681 791.153 17.3367 790.493 17.4037 789.612C17.4707 788.731 16.8107 787.962 15.9296 787.895L15.687 791.086ZM26.2887 788.579C25.4064 788.529 24.6508 789.204 24.601 790.086C24.5512 790.969 25.226 791.724 26.1083 791.774L26.2887 788.579ZM26.9277 791.82C27.81 791.868 28.5646 791.192 28.6132 790.31C28.6617 789.428 27.9858 788.673 27.1035 788.625L26.9277 791.82ZM37.4712 789.104C36.5881 789.071 35.8452 789.76 35.8118 790.643C35.7784 791.526 36.4671 792.269 37.3502 792.302L37.4712 789.104ZM38.1499 792.332C39.033 792.364 39.775 791.674 39.8073 790.791C39.8396 789.908 39.15 789.166 38.2669 789.134L38.1499 792.332ZM48.7969 789.436C47.9134 789.417 47.1822 790.118 47.1636 791.002C47.145 791.885 47.8462 792.617 48.7296 792.635L48.7969 789.436ZM49.5403 792.652C50.4238 792.669 51.1543 791.967 51.1718 791.084C51.1894 790.2 50.4875 789.47 49.604 789.452L49.5403 792.652ZM59.9072 789.585C59.0236 789.58 58.3029 790.292 58.2975 791.176C58.2921 792.059 59.0041 792.78 59.8877 792.785L59.9072 789.585ZM60.6952 792.79C61.5789 792.794 62.2988 792.082 62.3033 791.198C62.3078 790.314 61.595 789.594 60.7114 789.59L60.6952 792.79ZM71.2066 789.574C70.323 789.581 69.6123 790.303 69.6192 791.187C69.6262 792.07 70.3482 792.781 71.2318 792.774L71.2066 789.574ZM72.0236 792.767C72.9072 792.76 73.6172 792.037 73.6094 791.153C73.6017 790.27 72.879 789.56 71.9954 789.568L72.0236 792.767ZM82.3729 789.414C81.4894 789.432 80.788 790.163 80.8063 791.047C80.8246 791.93 81.5557 792.631 82.4391 792.613L82.3729 789.414ZM83.2495 792.596C84.1329 792.577 84.8336 791.845 84.8145 790.962C84.7954 790.078 84.0638 789.378 83.1803 789.397L83.2495 792.596ZM93.6314 789.111C92.7482 789.14 92.0558 789.88 92.0848 790.763C92.1138 791.646 92.8533 792.339 93.7365 792.31L93.6314 789.111ZM94.5321 792.283C95.4153 792.253 96.1071 791.513 96.0773 790.63C96.0475 789.747 95.3075 789.055 94.4243 789.085L94.5321 792.283ZM104.83 788.678C103.947 788.718 103.263 789.465 103.302 790.348C103.342 791.231 104.089 791.914 104.972 791.875L104.83 788.678ZM105.782 791.839C106.665 791.799 107.348 791.051 107.308 790.168C107.268 789.286 106.52 788.602 105.638 788.642L105.782 791.839ZM116.061 788.118C115.178 788.167 114.503 788.922 114.551 789.804C114.6 790.686 115.355 791.362 116.237 791.313L116.061 788.118ZM117.035 791.269C117.917 791.219 118.592 790.464 118.542 789.582C118.493 788.699 117.738 788.024 116.855 788.074L117.035 791.269ZM127.262 787.439C126.38 787.497 125.713 788.259 125.771 789.14C125.829 790.022 126.591 790.69 127.472 790.632L127.262 787.439ZM128.281 790.578C129.163 790.519 129.83 789.757 129.771 788.875C129.712 787.993 128.95 787.326 128.068 787.385L128.281 790.578ZM138.474 786.642C137.593 786.709 136.933 787.478 137 788.359C137.067 789.24 137.836 789.9 138.717 789.832L138.474 786.642ZM139.514 789.771C140.395 789.704 141.054 788.935 140.987 788.053C140.919 787.172 140.15 786.513 139.269 786.581L139.514 789.771ZM149.661 785.733C148.781 785.809 148.128 786.584 148.204 787.465C148.28 788.345 149.055 788.997 149.936 788.921L149.661 785.733ZM150.742 788.852C151.622 788.775 152.274 788 152.197 787.119C152.121 786.239 151.345 785.587 150.465 785.664L150.742 788.852ZM160.857 784.713C159.978 784.798 159.333 785.579 159.418 786.459C159.502 787.339 160.284 787.983 161.163 787.899L160.857 784.713ZM161.96 787.822C162.839 787.737 163.483 786.955 163.398 786.075C163.313 785.196 162.531 784.552 161.652 784.637L161.96 787.822ZM172.022 783.588C171.143 783.68 170.506 784.468 170.599 785.347C170.691 786.226 171.479 786.863 172.358 786.77L172.022 783.588ZM173.161 786.685C174.04 786.591 174.676 785.803 174.583 784.925C174.489 784.046 173.701 783.409 172.822 783.503L173.161 786.685ZM183.202 782.353C182.324 782.454 181.694 783.247 181.795 784.125C181.897 785.003 182.69 785.633 183.568 785.532L183.202 782.353ZM184.364 785.44C185.241 785.338 185.871 784.544 185.769 783.666C185.667 782.788 184.873 782.159 183.995 782.261L184.364 785.44ZM194.339 781.016C193.462 781.125 192.84 781.925 192.949 782.802C193.059 783.679 193.858 784.301 194.735 784.191L194.339 781.016ZM195.535 784.091C196.412 783.981 197.033 783.181 196.923 782.305C196.813 781.428 196.013 780.806 195.136 780.916L195.535 784.091ZM205.497 779.57C204.621 779.688 204.006 780.493 204.124 781.369C204.242 782.245 205.047 782.859 205.923 782.742L205.497 779.57ZM206.717 782.635C207.593 782.517 208.207 781.711 208.089 780.835C207.971 779.959 207.165 779.345 206.289 779.464L206.717 782.635ZM216.605 778.025C215.731 778.151 215.124 778.962 215.25 779.836C215.376 780.711 216.187 781.318 217.061 781.192L216.605 778.025ZM217.858 781.077C218.733 780.951 219.339 780.139 219.213 779.265C219.086 778.39 218.275 777.784 217.4 777.91L217.858 781.077ZM227.732 776.37C226.859 776.504 226.26 777.321 226.394 778.194C226.528 779.067 227.345 779.667 228.218 779.532L227.732 776.37ZM229.012 779.41C229.885 779.276 230.484 778.458 230.349 777.585C230.214 776.712 229.397 776.113 228.524 776.248L229.012 779.41ZM238.813 774.613C237.941 774.756 237.349 775.578 237.492 776.451C237.634 777.323 238.457 777.914 239.329 777.772L238.813 774.613ZM240.123 777.642C240.995 777.498 241.586 776.676 241.443 775.804C241.3 774.932 240.477 774.341 239.605 774.484L240.123 777.642ZM249.898 772.747C249.027 772.898 248.443 773.726 248.594 774.597C248.745 775.468 249.573 776.051 250.444 775.9L249.898 772.747ZM251.236 775.763C252.107 775.611 252.69 774.782 252.538 773.912C252.387 773.041 251.558 772.458 250.687 772.61L251.236 775.763ZM260.951 770.775C260.082 770.935 259.506 771.768 259.666 772.638C259.825 773.507 260.659 774.082 261.528 773.922L260.951 770.775ZM262.319 773.777C263.188 773.617 263.763 772.783 263.603 771.914C263.443 771.045 262.609 770.47 261.74 770.63L262.319 773.777ZM271.983 768.693C271.116 768.861 270.549 769.701 270.717 770.568C270.886 771.436 271.725 772.003 272.593 771.835L271.983 768.693ZM273.382 771.681C274.249 771.512 274.816 770.672 274.647 769.805C274.478 768.938 273.638 768.371 272.77 768.54L273.382 771.681ZM283.006 766.497C282.14 766.674 281.582 767.519 281.759 768.385C281.936 769.251 282.781 769.809 283.647 769.632L283.006 766.497ZM284.436 769.47C285.301 769.292 285.859 768.446 285.681 767.581C285.503 766.715 284.657 766.158 283.792 766.336L284.436 769.47ZM293.986 764.189C293.123 764.375 292.573 765.227 292.76 766.09C292.946 766.954 293.797 767.503 294.661 767.317L293.986 764.189ZM295.446 767.147C296.31 766.96 296.858 766.109 296.671 765.245C296.484 764.381 295.632 763.833 294.769 764.02L295.446 767.147ZM304.962 761.759C304.101 761.954 303.561 762.812 303.757 763.673C303.952 764.535 304.81 765.075 305.671 764.879L304.962 761.759ZM306.457 764.7C307.318 764.504 307.857 763.646 307.661 762.785C307.465 761.923 306.607 761.384 305.745 761.581L306.457 764.7ZM315.889 759.212C315.03 759.417 314.5 760.28 314.705 761.14C314.911 761.999 315.774 762.529 316.633 762.324L315.889 759.212ZM317.413 762.137C318.273 761.931 318.802 761.067 318.596 760.208C318.39 759.349 317.526 758.819 316.667 759.025L317.413 762.137ZM326.803 756.534C325.946 756.75 325.426 757.619 325.642 758.476C325.858 759.333 326.727 759.853 327.584 759.638L326.803 756.534ZM328.366 759.44C329.223 759.224 329.742 758.354 329.526 757.497C329.31 756.641 328.44 756.122 327.583 756.338L328.366 759.44ZM337.67 753.73C336.816 753.956 336.307 754.832 336.533 755.686C336.759 756.54 337.635 757.05 338.489 756.823L337.67 753.73ZM339.264 756.618C340.118 756.391 340.626 755.515 340.399 754.661C340.173 753.807 339.296 753.298 338.442 753.525L339.264 756.618ZM348.507 750.788C347.655 751.025 347.157 751.907 347.394 752.759C347.631 753.61 348.514 754.108 349.365 753.871L348.507 750.788ZM350.143 753.654C350.994 753.416 351.492 752.533 351.254 751.682C351.016 750.831 350.133 750.334 349.282 750.572L350.143 753.654ZM359.304 747.704C358.456 747.953 357.97 748.841 358.218 749.689C358.466 750.537 359.355 751.023 360.203 750.775L359.304 747.704ZM360.972 750.549C361.82 750.3 362.305 749.411 362.056 748.563C361.807 747.715 360.917 747.23 360.07 747.479L360.972 750.549ZM370.046 744.474C369.202 744.735 368.728 745.63 368.989 746.475C369.249 747.319 370.145 747.793 370.989 747.532L370.046 744.474ZM371.763 747.293C372.607 747.032 373.08 746.135 372.818 745.291C372.557 744.447 371.661 743.975 370.817 744.236L371.763 747.293ZM380.756 741.083C379.916 741.356 379.456 742.259 379.729 743.099C380.002 743.939 380.905 744.399 381.745 744.126L380.756 741.083ZM382.507 743.878C383.347 743.604 383.806 742.701 383.532 741.861C383.258 741.021 382.355 740.562 381.515 740.836L382.507 743.878ZM391.388 737.534C390.552 737.821 390.107 738.73 390.393 739.566C390.68 740.402 391.59 740.848 392.426 740.561L391.388 737.534ZM393.193 740.298C394.028 740.01 394.473 739.1 394.185 738.264C393.898 737.428 392.987 736.984 392.152 737.272L393.193 740.298ZM401.985 733.801C401.154 734.102 400.724 735.019 401.025 735.85C401.325 736.681 402.243 737.111 403.074 736.81L401.985 733.801ZM403.826 736.537C404.657 736.235 405.085 735.317 404.784 734.487C404.482 733.656 403.564 733.228 402.733 733.53L403.826 736.537ZM412.486 729.892C411.66 730.208 411.247 731.133 411.563 731.958C411.879 732.784 412.804 733.196 413.63 732.881L412.486 729.892ZM414.388 732.59C415.213 732.273 415.625 731.347 415.308 730.522C414.99 729.697 414.065 729.286 413.24 729.603L414.388 732.59ZM422.93 725.777C422.111 726.109 421.716 727.042 422.048 727.861C422.381 728.68 423.314 729.074 424.132 728.742L422.93 725.777ZM424.873 728.441C425.691 728.107 426.084 727.174 425.751 726.355C425.418 725.537 424.484 725.144 423.666 725.477L424.873 728.441ZM433.274 721.453C432.463 721.802 432.088 722.743 432.438 723.555C432.787 724.367 433.729 724.741 434.54 724.391L433.274 721.453ZM435.286 724.069C436.097 723.719 436.47 722.777 436.119 721.966C435.768 721.155 434.826 720.782 434.015 721.133L435.286 724.069ZM443.507 716.904C442.704 717.273 442.352 718.223 442.72 719.026C443.089 719.829 444.038 720.181 444.842 719.813L443.507 716.904ZM445.565 719.48C446.368 719.11 446.719 718.16 446.349 717.357C445.979 716.555 445.029 716.204 444.226 716.574L445.565 719.48ZM453.657 712.093C452.863 712.482 452.535 713.441 452.924 714.234C453.313 715.028 454.271 715.356 455.065 714.967L453.657 712.093ZM455.793 714.609C456.585 714.219 456.912 713.26 456.521 712.467C456.131 711.674 455.172 711.348 454.379 711.739L455.793 714.609ZM463.595 707.052C462.813 707.463 462.512 708.43 462.923 709.213C463.334 709.995 464.301 710.296 465.083 709.885L463.595 707.052ZM465.784 709.516C466.566 709.103 466.865 708.135 466.452 707.354C466.04 706.573 465.072 706.274 464.29 706.686L465.784 709.516ZM473.486 701.66C472.717 702.095 472.447 703.072 472.882 703.841C473.318 704.61 474.294 704.88 475.063 704.445L473.486 701.66ZM475.765 704.046C476.533 703.609 476.801 702.632 476.364 701.864C475.926 701.096 474.95 700.828 474.182 701.265L475.765 704.046ZM483.058 696.024C482.304 696.486 482.068 697.471 482.53 698.224C482.991 698.978 483.977 699.214 484.73 698.752L483.058 696.024ZM485.432 698.321C486.184 697.857 486.418 696.871 485.954 696.119C485.49 695.367 484.504 695.133 483.752 695.597L485.432 698.321ZM492.535 689.959C491.801 690.451 491.604 691.444 492.095 692.179C492.586 692.913 493.58 693.111 494.314 692.619L492.535 689.959ZM494.979 692.174C495.712 691.68 495.906 690.686 495.413 689.953C494.919 689.22 493.925 689.025 493.192 689.519L494.979 692.174ZM501.683 683.548C500.971 684.071 500.819 685.073 501.342 685.785C501.866 686.496 502.867 686.649 503.579 686.125L501.683 683.548ZM504.236 685.641C504.946 685.115 505.095 684.113 504.569 683.403C504.043 682.693 503.041 682.544 502.331 683.07L504.236 685.641ZM510.45 676.758C509.765 677.317 509.664 678.325 510.223 679.01C510.782 679.694 511.79 679.796 512.474 679.237L510.45 676.758ZM513.085 678.736C513.767 678.174 513.865 677.166 513.303 676.484C512.741 675.801 511.733 675.704 511.051 676.265L513.085 678.736ZM518.939 669.404C518.289 670.003 518.247 671.015 518.846 671.665C519.445 672.315 520.457 672.357 521.107 671.758L518.939 669.404ZM521.697 671.212C522.344 670.611 522.382 669.598 521.78 668.951C521.178 668.303 520.166 668.266 519.519 668.868L521.697 671.212ZM526.866 661.602C526.258 662.244 526.286 663.256 526.927 663.864C527.569 664.472 528.581 664.445 529.189 663.803L526.866 661.602ZM529.75 663.208C530.355 662.563 530.322 661.551 529.677 660.946C529.033 660.342 528.02 660.374 527.416 661.019L529.75 663.208ZM534.15 653.3C533.594 653.987 533.701 654.995 534.388 655.55C535.075 656.106 536.083 655.999 536.638 655.312L534.15 653.3ZM537.158 654.665C537.709 653.974 537.596 652.968 536.906 652.416C536.215 651.865 535.208 651.978 534.657 652.669L537.158 654.665ZM540.758 644.331C540.267 645.066 540.466 646.06 541.202 646.55C541.937 647.04 542.93 646.841 543.42 646.105L540.758 644.331ZM543.863 645.436C544.348 644.697 544.142 643.705 543.404 643.22C542.665 642.735 541.673 642.941 541.188 643.68L543.863 645.436ZM546.42 634.804C546.01 635.587 546.312 636.554 547.095 636.964C547.878 637.374 548.844 637.071 549.254 636.288L546.42 634.804ZM549.629 635.566C550.033 634.78 549.722 633.816 548.936 633.412C548.15 633.009 547.186 633.319 546.782 634.105L549.629 635.566ZM550.958 624.756C550.644 625.582 551.058 626.507 551.884 626.821C552.709 627.136 553.634 626.722 553.948 625.896L550.958 624.756ZM554.237 625.129C554.544 624.301 554.121 623.38 553.293 623.073C552.464 622.765 551.544 623.188 551.236 624.016L554.237 625.129ZM554.216 614.241C554.01 615.1 554.539 615.963 555.399 616.169C556.258 616.375 557.122 615.846 557.328 614.986L554.216 614.241ZM557.514 614.191C557.712 613.33 557.174 612.471 556.313 612.273C555.452 612.075 554.593 612.613 554.396 613.474L557.514 614.191ZM556.062 603.361C555.973 604.24 556.614 605.025 557.493 605.114C558.372 605.202 559.157 604.562 559.246 603.682L556.062 603.361ZM559.323 602.879C559.406 601.999 558.76 601.219 557.88 601.136C557 601.054 556.22 601.7 556.137 602.58L559.323 602.879ZM556.82 592.213C556.785 593.096 557.472 593.84 558.355 593.875C559.238 593.91 559.982 593.223 560.017 592.34L556.82 592.213ZM560.048 591.529C560.08 590.646 559.39 589.904 558.507 589.872C557.624 589.841 556.882 590.531 556.85 591.414L560.048 591.529ZM556.984 580.956C556.992 581.84 557.715 582.55 558.599 582.541C559.483 582.533 560.192 581.81 560.184 580.926L556.984 580.956ZM560.174 580.103C560.163 579.219 559.438 578.512 558.554 578.523C557.67 578.535 556.963 579.26 556.975 580.144L560.174 580.103ZM556.621 569.675C556.669 570.557 557.423 571.234 558.305 571.186C559.188 571.138 559.864 570.384 559.816 569.501L556.621 569.675ZM559.77 568.684C559.72 567.802 558.964 567.128 558.081 567.178C557.199 567.229 556.525 567.985 556.576 568.867L559.77 568.684ZM555.772 558.454C555.857 559.334 556.639 559.978 557.519 559.893C558.398 559.807 559.042 559.025 558.957 558.146L555.772 558.454ZM558.878 557.342C558.79 556.463 558.006 555.821 557.127 555.909C556.247 555.997 555.606 556.781 555.694 557.66L558.878 557.342ZM554.453 547.278C554.575 548.154 555.383 548.764 556.258 548.642C557.133 548.521 557.744 547.712 557.622 546.837L554.453 547.278ZM557.509 546.033C557.385 545.159 556.575 544.55 555.7 544.675C554.825 544.799 554.217 545.609 554.341 546.484L557.509 546.033ZM552.665 536.16C552.824 537.03 553.657 537.606 554.526 537.447C555.396 537.288 555.972 536.454 555.813 535.585L552.665 536.16ZM555.665 534.785C555.504 533.916 554.669 533.343 553.8 533.504C552.931 533.666 552.358 534.501 552.519 535.37L555.665 534.785ZM550.399 525.129C550.596 525.991 551.454 526.53 552.316 526.333C553.177 526.136 553.716 525.278 553.519 524.416L550.399 525.129ZM553.336 523.622C553.136 522.761 552.276 522.225 551.415 522.425C550.555 522.625 550.019 523.485 550.219 524.345L553.336 523.622ZM547.638 514.216C547.875 515.067 548.757 515.566 549.608 515.329C550.46 515.092 550.958 514.21 550.721 513.358L547.638 514.216ZM550.501 512.573C550.261 511.723 549.378 511.228 548.527 511.467C547.676 511.707 547.181 512.591 547.421 513.442L550.501 512.573ZM544.356 503.455C544.635 504.293 545.541 504.747 546.38 504.468C547.218 504.189 547.672 503.283 547.392 502.444L544.356 503.455ZM547.134 501.671C546.851 500.834 545.944 500.384 545.106 500.666C544.269 500.948 543.819 501.856 544.101 502.693L547.134 501.671ZM540.521 492.889C540.846 493.711 541.775 494.114 542.597 493.79C543.419 493.465 543.822 492.536 543.498 491.714L540.521 492.889ZM543.197 490.957C542.87 490.136 541.939 489.737 541.118 490.064C540.298 490.392 539.898 491.323 540.226 492.143L543.197 490.957ZM536.094 482.569C536.467 483.37 537.419 483.717 538.22 483.344C539.021 482.971 539.368 482.019 538.995 481.218L536.094 482.569ZM538.649 480.479C538.273 479.68 537.319 479.337 536.52 479.713C535.721 480.09 535.378 481.043 535.754 481.843L538.649 480.479ZM531.029 472.556C531.455 473.331 532.427 473.614 533.202 473.189C533.977 472.763 534.26 471.791 533.834 471.016L531.029 472.556ZM533.438 470.298C533.009 469.526 532.034 469.248 531.262 469.677C530.49 470.106 530.212 471.081 530.641 471.853L533.438 470.298ZM525.279 462.933C525.761 463.674 526.752 463.884 527.492 463.402C528.233 462.921 528.443 461.93 527.962 461.189L525.279 462.933ZM527.513 460.503C527.027 459.764 526.035 459.56 525.297 460.046C524.559 460.532 524.354 461.524 524.84 462.262L527.513 460.503ZM518.801 453.804C519.342 454.502 520.347 454.63 521.046 454.088C521.744 453.547 521.871 452.542 521.33 451.843L518.801 453.804ZM520.825 451.197C520.28 450.502 519.274 450.381 518.579 450.927C517.884 451.472 517.763 452.478 518.309 453.173L520.825 451.197ZM511.561 445.291C512.164 445.937 513.177 445.971 513.822 445.367C514.468 444.764 514.502 443.751 513.898 443.106L511.561 445.291ZM513.336 442.509C512.728 441.867 511.716 441.84 511.074 442.448C510.433 443.056 510.406 444.069 511.014 444.71L513.336 442.509ZM503.544 437.533C504.209 438.114 505.22 438.045 505.801 437.379C506.382 436.713 506.313 435.702 505.647 435.121L503.544 437.533ZM505.026 434.584C504.356 434.008 503.346 434.085 502.77 434.755C502.194 435.425 502.271 436.435 502.941 437.011L505.026 434.584ZM494.762 430.674C495.487 431.178 496.484 430.999 496.989 430.273C497.493 429.548 497.314 428.551 496.589 428.046L494.762 430.674ZM495.91 427.579C495.181 427.08 494.185 427.267 493.687 427.997C493.188 428.727 493.375 429.722 494.105 430.221L495.91 427.579ZM485.266 424.85C486.045 425.268 487.015 424.975 487.432 424.196C487.85 423.417 487.557 422.447 486.778 422.03L485.266 424.85ZM486.047 421.642C485.264 421.231 484.297 421.532 483.886 422.315C483.475 423.097 483.777 424.064 484.559 424.475L486.047 421.642ZM475.155 420.175C475.978 420.498 476.906 420.093 477.229 419.27C477.553 418.448 477.148 417.519 476.325 417.196L475.155 420.175ZM475.569 416.903C474.743 416.586 473.818 416.999 473.502 417.824C473.186 418.649 473.598 419.574 474.423 419.89L475.569 416.903ZM464.584 416.714C465.438 416.94 466.314 416.431 466.54 415.577C466.767 414.723 466.258 413.847 465.404 413.62L464.584 416.714ZM464.62 413.416C463.764 413.196 462.892 413.712 462.672 414.568C462.452 415.424 462.968 416.296 463.824 416.515L464.62 413.416ZM453.678 414.458C454.552 414.59 455.367 413.989 455.499 413.115C455.631 412.242 455.03 411.426 454.156 411.294L453.678 414.458ZM453.356 411.177C452.482 411.051 451.671 411.658 451.545 412.533C451.42 413.408 452.027 414.218 452.902 414.344L453.356 411.177ZM442.574 413.357C443.456 413.401 444.207 412.721 444.251 411.838C444.294 410.955 443.614 410.205 442.731 410.161L442.574 413.357ZM441.928 410.124C441.045 410.086 440.299 410.771 440.261 411.654C440.223 412.537 440.908 413.283 441.791 413.321L441.928 410.124ZM431.382 413.322C432.265 413.285 432.951 412.54 432.914 411.657C432.878 410.774 432.132 410.088 431.249 410.125L431.382 413.322ZM430.452 410.16C429.569 410.202 428.887 410.951 428.929 411.834C428.971 412.717 429.72 413.398 430.603 413.356L430.452 410.16ZM420.204 414.247C421.081 414.139 421.705 413.341 421.597 412.464C421.49 411.587 420.691 410.963 419.814 411.07L420.204 414.247ZM419.006 411.172C418.13 411.284 417.51 412.085 417.622 412.962C417.734 413.838 418.536 414.458 419.413 414.346L419.006 411.172ZM409.193 416.002C410.06 415.832 410.626 414.992 410.457 414.125C410.288 413.258 409.447 412.692 408.58 412.861L409.193 416.002ZM407.76 413.023C406.893 413.196 406.331 414.039 406.505 414.906C406.678 415.772 407.521 416.334 408.387 416.161L407.76 413.023ZM398.299 418.487C399.155 418.264 399.667 417.391 399.445 416.535C399.222 415.68 398.348 415.168 397.493 415.39L398.299 418.487ZM396.697 415.599C395.843 415.826 395.334 416.701 395.56 417.556C395.786 418.41 396.662 418.919 397.516 418.693L396.697 415.599ZM387.51 421.622C388.351 421.353 388.815 420.452 388.546 419.61C388.277 418.769 387.376 418.305 386.535 418.574L387.51 421.622ZM385.767 418.821C384.926 419.093 384.465 419.996 384.738 420.836C385.01 421.677 385.912 422.138 386.753 421.865L385.767 418.821ZM376.791 425.348C377.619 425.038 378.038 424.116 377.728 423.288C377.418 422.461 376.496 422.041 375.669 422.351L376.791 425.348ZM374.931 422.629C374.104 422.942 373.688 423.865 374 424.692C374.313 425.518 375.236 425.935 376.063 425.622L374.931 422.629ZM366.426 429.49C367.239 429.145 367.619 428.206 367.274 427.392C366.929 426.578 365.99 426.198 365.177 426.543L366.426 429.49ZM364.414 426.868C363.601 427.215 363.224 428.156 363.571 428.968C363.919 429.781 364.859 430.158 365.671 429.811L364.414 426.868ZM356.168 434.074C356.968 433.699 357.312 432.746 356.937 431.946C356.561 431.146 355.608 430.802 354.808 431.178L356.168 434.074ZM354.079 431.521C353.28 431.899 352.939 432.853 353.317 433.652C353.694 434.45 354.648 434.792 355.447 434.414L354.079 431.521ZM345.92 439.109C346.706 438.706 347.017 437.742 346.614 436.955C346.211 436.169 345.247 435.858 344.461 436.261L345.92 439.109ZM343.709 436.647C342.923 437.052 342.614 438.017 343.019 438.803C343.424 439.588 344.389 439.897 345.174 439.492L343.709 436.647ZM335.715 444.529C336.489 444.103 336.771 443.13 336.345 442.356C335.919 441.582 334.946 441.3 334.172 441.726L335.715 444.529ZM333.458 442.12C332.685 442.547 332.405 443.521 332.833 444.294C333.261 445.067 334.235 445.347 335.008 444.92L333.458 442.12ZM326.07 450.032C326.831 449.582 327.083 448.6 326.633 447.84C326.183 447.079 325.202 446.827 324.441 447.277L326.07 450.032ZM323.753 447.686C322.993 448.137 322.743 449.119 323.195 449.879C323.647 450.638 324.628 450.888 325.388 450.436L323.753 447.686ZM316.28 456.051C317.025 455.575 317.242 454.586 316.766 453.841C316.29 453.097 315.301 452.879 314.556 453.356L316.28 456.051ZM313.871 453.795C313.128 454.273 312.913 455.263 313.391 456.006C313.869 456.749 314.859 456.964 315.602 456.486L313.871 453.795ZM307.019 462.216C307.745 461.713 307.926 460.716 307.422 459.99C306.919 459.263 305.922 459.083 305.196 459.586L307.019 462.216ZM304.503 460.068C303.778 460.574 303.6 461.571 304.106 462.296C304.611 463.021 305.609 463.198 306.333 462.693L304.503 460.068ZM297.757 468.923C298.461 468.39 298.6 467.386 298.067 466.682C297.533 465.977 296.53 465.839 295.825 466.372L297.757 468.923ZM295.183 466.86C294.48 467.396 294.345 468.4 294.88 469.102C295.416 469.805 296.42 469.941 297.123 469.405L295.183 466.86ZM288.955 475.904C289.635 475.339 289.728 474.33 289.163 473.651C288.598 472.971 287.589 472.878 286.909 473.443L288.955 475.904ZM286.27 473.977C285.593 474.544 285.503 475.553 286.071 476.231C286.638 476.908 287.647 476.998 288.325 476.43L286.27 473.977ZM280.498 483.299C281.148 482.701 281.19 481.688 280.591 481.038C279.993 480.388 278.98 480.347 278.33 480.945L280.498 483.299ZM277.748 481.483C277.1 482.084 277.062 483.097 277.663 483.745C278.264 484.392 279.276 484.43 279.924 483.829L277.748 481.483ZM272.37 491.213C272.985 490.578 272.969 489.565 272.335 488.95C271.7 488.335 270.687 488.351 270.072 488.985L272.37 491.213ZM269.506 489.571C268.894 490.208 268.914 491.221 269.551 491.834C270.188 492.446 271.201 492.426 271.813 491.789L269.506 489.571ZM264.821 499.491C265.395 498.819 265.317 497.809 264.645 497.235C263.974 496.66 262.964 496.739 262.389 497.41L264.821 499.491ZM261.849 498.045C261.278 498.72 261.361 499.729 262.036 500.3C262.71 500.871 263.72 500.788 264.291 500.114L261.849 498.045ZM257.854 508.219C258.381 507.509 258.232 506.507 257.523 505.98C256.813 505.454 255.811 505.602 255.284 506.311L257.854 508.219ZM254.804 506.962C254.281 507.674 254.434 508.676 255.147 509.199C255.859 509.722 256.86 509.568 257.383 508.856L254.804 506.962ZM251.467 517.549C251.937 516.801 251.711 515.813 250.963 515.343C250.214 514.874 249.227 515.099 248.757 515.848L251.467 517.549ZM248.33 516.531C247.865 517.282 248.096 518.268 248.847 518.734C249.598 519.2 250.585 518.968 251.05 518.217L248.33 516.531ZM245.899 527.306C246.304 526.52 245.994 525.556 245.208 525.152C244.422 524.748 243.458 525.057 243.054 525.843L245.899 527.306ZM242.683 526.57C242.284 527.359 242.599 528.321 243.388 528.72C244.176 529.119 245.139 528.804 245.538 528.015L242.683 526.57ZM241.246 537.487C241.575 536.667 241.176 535.735 240.356 535.407C239.536 535.078 238.604 535.476 238.276 536.297L241.246 537.487ZM237.972 537.063C237.649 537.885 238.054 538.814 238.877 539.137C239.699 539.46 240.628 539.054 240.951 538.232L237.972 537.063ZM237.616 548.056C237.86 547.207 237.369 546.321 236.519 546.077C235.67 545.834 234.784 546.325 234.54 547.174L237.616 548.056ZM234.315 547.971C234.078 548.823 234.576 549.705 235.427 549.942C236.279 550.179 237.161 549.681 237.398 548.83L234.315 547.971ZM235.123 558.941C235.273 558.07 234.688 557.243 233.817 557.094C232.946 556.944 232.119 557.529 231.969 558.4L235.123 558.941ZM231.832 559.218C231.69 560.09 232.281 560.913 233.153 561.055C234.025 561.198 234.848 560.606 234.99 559.734L231.832 559.218ZM233.864 570.033C233.912 569.151 233.237 568.396 232.354 568.347C231.472 568.299 230.717 568.974 230.669 569.857L233.864 570.033ZM230.626 570.685C230.585 571.568 231.267 572.317 232.15 572.358C233.032 572.4 233.781 571.718 233.823 570.835L230.626 570.685ZM233.906 581.194C233.85 580.312 233.09 579.642 232.208 579.698C231.326 579.754 230.657 580.514 230.712 581.396L233.906 581.194ZM230.768 582.223C230.832 583.104 231.598 583.767 232.479 583.704C233.361 583.64 234.024 582.874 233.96 581.993L230.768 582.223ZM235.279 592.269C235.118 591.4 234.283 590.826 233.414 590.987C232.545 591.149 231.971 591.984 232.133 592.852L235.279 592.269ZM232.287 593.665C232.456 594.532 233.295 595.098 234.163 594.93C235.03 594.761 235.597 593.921 235.428 593.054L232.287 593.665ZM237.97 603.1C237.706 602.256 236.808 601.787 235.965 602.051C235.122 602.315 234.652 603.213 234.916 604.056L237.97 603.1ZM235.166 604.842C235.437 605.683 236.339 606.145 237.18 605.874C238.021 605.603 238.483 604.701 238.212 603.86L235.166 604.842ZM241.933 613.535C241.571 612.729 240.624 612.369 239.818 612.731C239.011 613.093 238.651 614.04 239.013 614.846L241.933 613.535ZM239.354 615.597C239.723 616.4 240.673 616.752 241.476 616.383C242.279 616.014 242.631 615.064 242.262 614.261L239.354 615.597ZM247.095 623.436C246.642 622.678 245.659 622.431 244.901 622.884C244.143 623.338 243.895 624.32 244.349 625.079L247.095 623.436ZM244.774 625.783C245.234 626.538 246.219 626.777 246.973 626.317C247.728 625.857 247.967 624.873 247.507 624.118L244.774 625.783ZM253.372 632.673C252.834 631.972 251.829 631.84 251.128 632.378C250.427 632.916 250.295 633.92 250.833 634.621L253.372 632.673ZM251.336 635.271C251.88 635.968 252.885 636.092 253.582 635.548C254.278 635.005 254.402 633.999 253.859 633.303L251.336 635.271ZM260.668 641.127C260.053 640.492 259.04 640.477 258.405 641.091C257.771 641.706 257.755 642.719 258.37 643.354L260.668 641.127ZM258.945 643.943C259.566 644.572 260.579 644.58 261.208 643.96C261.837 643.34 261.845 642.326 261.225 641.697L258.945 643.943ZM268.896 648.685C268.211 648.126 267.203 648.228 266.645 648.913C266.086 649.597 266.188 650.605 266.873 651.164L268.896 648.685ZM267.517 651.685C268.206 652.238 269.213 652.127 269.766 651.438C270.319 650.749 270.208 649.742 269.519 649.189L267.517 651.685ZM277.956 655.219C277.21 654.746 276.221 654.968 275.749 655.715C275.276 656.462 275.498 657.45 276.245 657.923L277.956 655.219ZM276.946 658.362C277.697 658.828 278.683 658.597 279.149 657.847C279.615 657.096 279.384 656.109 278.634 655.643L276.946 658.362ZM287.737 660.587C286.937 660.212 285.985 660.556 285.61 661.356C285.235 662.156 285.579 663.109 286.379 663.484L287.737 660.587ZM287.129 663.831C287.933 664.199 288.882 663.846 289.25 663.042C289.617 662.239 289.264 661.289 288.46 660.922L287.129 663.831ZM298.113 664.635C297.27 664.37 296.372 664.84 296.108 665.683C295.843 666.526 296.312 667.424 297.155 667.688L298.113 664.635ZM297.944 667.932C298.79 668.188 299.683 667.71 299.939 666.864C300.195 666.018 299.717 665.125 298.872 664.869L297.944 667.932ZM308.929 667.198C308.056 667.058 307.235 667.651 307.095 668.524C306.955 669.396 307.549 670.217 308.421 670.357L308.929 667.198ZM309.237 670.484C310.111 670.615 310.926 670.012 311.056 669.138C311.187 668.264 310.585 667.45 309.711 667.319L309.237 670.484ZM319.991 668.109C319.108 668.107 318.389 668.821 318.386 669.704C318.383 670.588 319.097 671.306 319.981 671.309L319.991 668.109ZM320.811 671.307C321.694 671.3 322.405 670.577 322.397 669.694C322.39 668.81 321.668 668.1 320.784 668.107L320.811 671.307ZM331.033 667.234C330.161 667.377 329.571 668.2 329.714 669.072C329.857 669.944 330.68 670.535 331.552 670.392L331.033 667.234ZM332.37 670.252C333.24 670.099 333.821 669.269 333.667 668.398C333.514 667.528 332.684 666.948 331.813 667.101L332.37 670.252ZM341.759 664.517C340.924 664.806 340.482 665.718 340.772 666.553C341.061 667.388 341.973 667.83 342.808 667.54L341.759 664.517ZM343.594 667.262C344.425 666.963 344.856 666.046 344.556 665.214C344.256 664.383 343.34 663.952 342.508 664.252L343.594 667.262ZM351.881 660.012C351.106 660.438 350.824 661.41 351.249 662.185C351.675 662.959 352.648 663.242 353.422 662.816L351.881 660.012ZM354.156 662.407C354.926 661.972 355.197 660.996 354.762 660.226C354.327 659.457 353.351 659.186 352.581 659.621L354.156 662.407ZM361.153 653.892C360.456 654.435 360.331 655.441 360.874 656.138C361.417 656.835 362.422 656.96 363.12 656.417L361.153 653.892ZM363.786 655.892C364.477 655.341 364.591 654.335 364.04 653.644C363.49 652.953 362.483 652.839 361.792 653.389L363.786 655.892ZM369.418 646.424C368.806 647.061 368.826 648.074 369.463 648.686C370.1 649.299 371.113 649.279 371.725 648.642L369.418 646.424ZM372.303 648.034C372.908 647.391 372.877 646.378 372.233 645.773C371.589 645.168 370.577 645.199 369.971 645.843L372.303 648.034ZM376.195 637.976C375.709 638.714 375.913 639.707 376.651 640.193C377.389 640.679 378.381 640.475 378.867 639.737L376.195 637.976ZM379.312 639.051C379.788 638.307 379.571 637.317 378.826 636.841C378.082 636.365 377.092 636.583 376.616 637.327L379.312 639.051ZM381.237 628.449C380.901 629.266 381.291 630.201 382.108 630.537C382.925 630.873 383.86 630.483 384.196 629.666L381.237 628.449ZM384.5 628.914C384.825 628.092 384.422 627.162 383.601 626.837C382.779 626.512 381.849 626.915 381.524 627.737L384.5 628.914ZM384.361 618.131C384.187 618.997 384.748 619.84 385.615 620.014C386.481 620.188 387.324 619.626 387.498 618.76L384.361 618.131ZM387.653 617.959C387.815 617.09 387.242 616.255 386.373 616.093C385.505 615.931 384.669 616.504 384.507 617.372L387.653 617.959ZM385.47 607.403C385.462 608.287 386.172 609.009 387.056 609.017C387.939 609.025 388.662 608.315 388.67 607.431L385.47 607.403ZM388.671 606.616C388.667 605.732 387.947 605.019 387.064 605.023C386.18 605.027 385.467 605.747 385.471 606.631L388.671 606.616ZM384.554 596.649C384.711 597.518 385.543 598.096 386.413 597.939C387.283 597.782 387.86 596.95 387.703 596.08L384.554 596.649ZM387.553 595.281C387.385 594.413 386.545 593.847 385.678 594.015C384.81 594.184 384.244 595.024 384.412 595.891L387.553 595.281ZM381.642 586.264C381.962 587.088 382.888 587.498 383.712 587.179C384.536 586.859 384.946 585.933 384.627 585.109L381.642 586.264ZM384.327 584.35C383.996 583.53 383.064 583.134 382.244 583.465C381.425 583.795 381.028 584.727 381.359 585.547L384.327 584.35ZM376.776 576.665C377.254 577.408 378.244 577.623 378.987 577.144C379.73 576.666 379.945 575.676 379.466 574.933L376.776 576.665ZM379.018 574.248C378.528 573.512 377.535 573.312 376.799 573.802C376.064 574.291 375.864 575.285 376.354 576.02L379.018 574.248ZM370.02 568.334C370.65 568.953 371.663 568.943 372.282 568.312C372.901 567.681 372.891 566.668 372.26 566.049L370.02 568.334ZM371.669 565.479C371.028 564.871 370.015 564.898 369.407 565.539C368.799 566.18 368.826 567.193 369.467 567.801L371.669 565.479ZM361.54 561.837C362.303 562.282 363.283 562.024 363.728 561.26C364.173 560.497 363.914 559.517 363.151 559.072L361.54 561.837ZM362.436 558.664C361.665 558.234 360.69 558.51 360.259 559.282C359.829 560.053 360.105 561.028 360.877 561.459L362.436 558.664ZM351.716 557.731C352.569 557.96 353.447 557.455 353.677 556.602C353.907 555.749 353.401 554.871 352.548 554.641L351.716 557.731ZM351.746 554.433C350.889 554.22 350.021 554.742 349.807 555.599C349.594 556.457 350.116 557.325 350.973 557.538L351.746 554.433ZM341.153 556.321C342.036 556.326 342.757 555.614 342.762 554.731C342.768 553.847 342.056 553.127 341.172 553.121L341.153 556.321ZM340.351 553.123C339.467 553.133 338.759 553.858 338.769 554.741C338.779 555.625 339.503 556.333 340.387 556.323L340.351 553.123ZM330.483 557.499C331.345 557.307 331.889 556.453 331.697 555.59C331.505 554.727 330.65 554.184 329.788 554.376L330.483 557.499ZM-18.2651 787.104C-18.1386 787.125 -18.0118 787.147 -17.8849 787.168L-17.359 784.011C-17.4845 783.99 -17.6098 783.969 -17.7349 783.948L-18.2651 787.104ZM-7.62393 788.696C-7.35176 788.732 -7.07891 788.768 -6.80537 788.804L-6.39219 785.631C-6.66324 785.595 -6.9336 785.56 -7.20326 785.524L-7.62393 788.696ZM3.56862 790.008C3.83465 790.035 4.10122 790.062 4.36833 790.089L4.68928 786.905C4.42417 786.878 4.15962 786.851 3.89562 786.824L3.56862 790.008ZM14.9035 791.026C15.1642 791.046 15.4254 791.066 15.687 791.086L15.9296 787.895C15.6697 787.875 15.4102 787.855 15.1512 787.835L14.9035 791.026ZM26.1083 791.774C26.381 791.789 26.6541 791.805 26.9277 791.82L27.1035 788.625C26.8314 788.61 26.5598 788.594 26.2887 788.579L26.1083 791.774ZM37.3502 792.302C37.6164 792.312 37.883 792.322 38.1499 792.332L38.2669 789.134C38.0013 789.124 37.7361 789.114 37.4712 789.104L37.3502 792.302ZM48.7296 792.635C48.9995 792.641 49.2698 792.646 49.5403 792.652L49.604 789.452C49.3346 789.447 49.0656 789.442 48.7969 789.436L48.7296 792.635ZM59.8877 792.785C60.1566 792.787 60.4258 792.788 60.6952 792.79L60.7114 789.59C60.4431 789.588 60.175 789.587 59.9072 789.585L59.8877 792.785ZM71.2318 792.774C71.4955 792.772 71.7594 792.77 72.0236 792.767L71.9954 789.568C71.7322 789.57 71.4693 789.572 71.2066 789.574L71.2318 792.774ZM82.4391 792.613C82.709 792.607 82.9791 792.602 83.2495 792.596L83.1803 789.397C82.911 789.402 82.6418 789.408 82.3729 789.414L82.4391 792.613ZM93.7365 792.31C94.0015 792.301 94.2667 792.292 94.5321 792.283L94.4243 789.085C94.1598 789.094 93.8955 789.103 93.6314 789.111L93.7365 792.31ZM104.972 791.875C105.242 791.863 105.512 791.851 105.782 791.839L105.638 788.642C105.368 788.654 105.099 788.667 104.83 788.678L104.972 791.875ZM116.237 791.313C116.503 791.299 116.769 791.284 117.035 791.269L116.855 788.074C116.59 788.089 116.325 788.104 116.061 788.118L116.237 791.313ZM127.472 790.632C127.742 790.614 128.011 790.596 128.281 790.578L128.068 787.385C127.799 787.403 127.531 787.421 127.262 787.439L127.472 790.632ZM138.717 789.832C138.982 789.812 139.248 789.792 139.514 789.771L139.269 786.581C139.003 786.601 138.739 786.622 138.474 786.642L138.717 789.832ZM149.936 788.921C150.204 788.898 150.473 788.875 150.742 788.852L150.465 785.664C150.197 785.687 149.929 785.71 149.661 785.733L149.936 788.921ZM161.163 787.899C161.429 787.873 161.694 787.848 161.96 787.822L161.652 784.637C161.387 784.662 161.122 784.688 160.857 784.713L161.163 787.899ZM172.358 786.77C172.625 786.742 172.893 786.713 173.161 786.685L172.822 783.503C172.555 783.531 172.288 783.559 172.022 783.588L172.358 786.77ZM183.568 785.532C183.833 785.501 184.098 785.47 184.364 785.44L183.995 782.261C183.731 782.292 183.466 782.322 183.202 782.353L183.568 785.532ZM194.735 784.191C195.002 784.158 195.268 784.125 195.535 784.091L195.136 780.916C194.871 780.949 194.605 780.983 194.339 781.016L194.735 784.191ZM205.923 782.742C206.188 782.706 206.452 782.671 206.717 782.635L206.289 779.464C206.025 779.499 205.761 779.535 205.497 779.57L205.923 782.742ZM217.061 781.192C217.327 781.154 217.592 781.116 217.858 781.077L217.4 777.91C217.135 777.948 216.87 777.987 216.605 778.025L217.061 781.192ZM228.218 779.532C228.483 779.492 228.747 779.451 229.012 779.41L228.524 776.248C228.26 776.288 227.996 776.329 227.732 776.37L228.218 779.532ZM239.329 777.772C239.594 777.728 239.858 777.685 240.123 777.642L239.605 774.484C239.341 774.527 239.077 774.57 238.813 774.613L239.329 777.772ZM250.444 775.9C250.708 775.854 250.972 775.809 251.236 775.763L250.687 772.61C250.424 772.656 250.161 772.702 249.898 772.747L250.444 775.9ZM261.528 773.922C261.792 773.874 262.056 773.826 262.319 773.777L261.74 770.63C261.477 770.678 261.214 770.727 260.951 770.775L261.528 773.922ZM272.593 771.835C272.856 771.784 273.119 771.732 273.382 771.681L272.77 768.54C272.508 768.591 272.246 768.642 271.983 768.693L272.593 771.835ZM283.647 769.632C283.91 769.578 284.173 769.524 284.436 769.47L283.792 766.336C283.53 766.389 283.268 766.443 283.006 766.497L283.647 769.632ZM294.661 767.317C294.923 767.261 295.184 767.204 295.446 767.147L294.769 764.02C294.508 764.076 294.247 764.133 293.986 764.189L294.661 767.317ZM305.671 764.879C305.933 764.82 306.195 764.76 306.457 764.7L305.745 761.581C305.484 761.64 305.223 761.699 304.962 761.759L305.671 764.879ZM316.633 762.324C316.893 762.262 317.153 762.199 317.413 762.137L316.667 759.025C316.407 759.088 316.148 759.15 315.889 759.212L316.633 762.324ZM327.584 759.638C327.845 759.572 328.106 759.506 328.366 759.44L327.583 756.338C327.323 756.403 327.063 756.469 326.803 756.534L327.584 759.638ZM338.489 756.823C338.747 756.755 339.006 756.687 339.264 756.618L338.442 753.525C338.185 753.594 337.928 753.662 337.67 753.73L338.489 756.823ZM349.365 753.871C349.625 753.799 349.884 753.726 350.143 753.654L349.282 750.572C349.024 750.644 348.765 750.716 348.507 750.788L349.365 753.871ZM360.203 750.775C360.46 750.7 360.716 750.625 360.972 750.549L360.07 747.479C359.814 747.554 359.559 747.629 359.304 747.704L360.203 750.775ZM370.989 747.532C371.247 747.453 371.505 747.373 371.763 747.293L370.817 744.236C370.56 744.316 370.303 744.395 370.046 744.474L370.989 747.532ZM381.745 744.126C381.999 744.044 382.253 743.961 382.507 743.878L381.515 740.836C381.262 740.918 381.009 741.001 380.756 741.083L381.745 744.126ZM392.426 740.561C392.681 740.473 392.937 740.385 393.193 740.298L392.152 737.272C391.897 737.359 391.643 737.447 391.388 737.534L392.426 740.561ZM403.074 736.81C403.325 736.719 403.576 736.628 403.826 736.537L402.733 733.53C402.484 733.62 402.234 733.711 401.985 733.801L403.074 736.81ZM413.63 732.881C413.883 732.784 414.136 732.687 414.388 732.59L413.24 729.603C412.989 729.699 412.737 729.796 412.486 729.892L413.63 732.881ZM424.132 728.742C424.38 728.642 424.626 728.541 424.873 728.441L423.666 725.477C423.421 725.577 423.175 725.677 422.93 725.777L424.132 728.742ZM434.54 724.391C434.789 724.284 435.038 724.177 435.286 724.069L434.015 721.133C433.768 721.239 433.521 721.346 433.274 721.453L434.54 724.391ZM444.842 719.813C445.083 719.702 445.324 719.591 445.565 719.48L444.226 716.574C443.987 716.684 443.747 716.794 443.507 716.904L444.842 719.813ZM455.065 714.967C455.308 714.848 455.55 714.729 455.793 714.609L454.379 711.739C454.139 711.857 453.898 711.975 453.657 712.093L455.065 714.967ZM465.083 709.885C465.317 709.762 465.551 709.639 465.784 709.516L464.29 706.686C464.059 706.808 463.827 706.93 463.595 707.052L465.083 709.885ZM475.063 704.445C475.297 704.312 475.531 704.179 475.765 704.046L474.182 701.265C473.95 701.397 473.719 701.529 473.486 701.66L475.063 704.445ZM484.73 698.752C484.964 698.609 485.198 698.465 485.432 698.321L483.752 695.597C483.521 695.74 483.29 695.882 483.058 696.024L484.73 698.752ZM494.314 692.619C494.536 692.471 494.758 692.322 494.979 692.174L493.192 689.519C492.973 689.666 492.755 689.813 492.535 689.959L494.314 692.619ZM503.579 686.125C503.798 685.964 504.017 685.803 504.236 685.641L502.331 683.07C502.115 683.229 501.899 683.389 501.683 683.548L503.579 686.125ZM512.474 679.237C512.678 679.07 512.882 678.903 513.085 678.736L511.051 676.265C510.851 676.43 510.651 676.594 510.45 676.758L512.474 679.237ZM521.107 671.758C521.304 671.576 521.501 671.394 521.697 671.212L519.519 668.868C519.326 669.047 519.133 669.226 518.939 669.404L521.107 671.758ZM529.189 663.803C529.377 663.605 529.564 663.406 529.75 663.208L527.416 661.019C527.233 661.214 527.05 661.408 526.866 661.602L529.189 663.803ZM536.638 655.312C536.812 655.097 536.986 654.881 537.158 654.665L534.657 652.669C534.489 652.88 534.32 653.09 534.15 653.3L536.638 655.312ZM543.42 646.105C543.569 645.882 543.717 645.659 543.863 645.436L541.188 643.68C541.046 643.897 540.902 644.114 540.758 644.331L543.42 646.105ZM549.254 636.288C549.38 636.048 549.505 635.807 549.629 635.566L546.782 634.105C546.662 634.338 546.542 634.571 546.42 634.804L549.254 636.288ZM553.948 625.896C554.046 625.641 554.142 625.385 554.237 625.129L551.236 624.016C551.145 624.263 551.052 624.51 550.958 624.756L553.948 625.896ZM557.328 614.986C557.391 614.722 557.453 614.456 557.514 614.191L554.396 613.474C554.337 613.73 554.277 613.985 554.216 614.241L557.328 614.986ZM559.246 603.682C559.26 603.546 559.273 603.409 559.286 603.272L556.101 602.967C556.088 603.098 556.075 603.23 556.062 603.361L559.246 603.682ZM559.286 603.272C559.299 603.141 559.311 603.01 559.323 602.879L556.137 602.58C556.125 602.709 556.113 602.838 556.101 602.967L559.286 603.272ZM560.017 592.34C560.028 592.07 560.038 591.8 560.048 591.529L556.85 591.414C556.84 591.681 556.83 591.947 556.82 592.213L560.017 592.34ZM560.184 580.926C560.181 580.652 560.178 580.378 560.174 580.103L556.975 580.144C556.978 580.415 556.981 580.686 556.984 580.956L560.184 580.926ZM559.816 569.501C559.801 569.229 559.786 568.957 559.77 568.684L556.576 568.867C556.591 569.137 556.606 569.406 556.621 569.675L559.816 569.501ZM558.957 558.146C558.931 557.878 558.905 557.61 558.878 557.342L555.694 557.66C555.72 557.925 555.746 558.19 555.772 558.454L558.957 558.146ZM557.622 546.837C557.585 546.569 557.547 546.301 557.509 546.033L554.341 546.484C554.379 546.749 554.416 547.014 554.453 547.278L557.622 546.837ZM555.813 535.585C555.764 535.318 555.715 535.052 555.665 534.785L552.519 535.37C552.568 535.633 552.617 535.897 552.665 536.16L555.813 535.585ZM553.519 524.416C553.458 524.152 553.397 523.887 553.336 523.622L550.219 524.345C550.279 524.607 550.339 524.868 550.399 525.129L553.519 524.416ZM550.721 513.358C550.648 513.097 550.575 512.835 550.501 512.573L547.421 513.442C547.494 513.7 547.566 513.958 547.638 514.216L550.721 513.358ZM547.392 502.444C547.307 502.187 547.22 501.929 547.134 501.671L544.101 502.693C544.187 502.947 544.272 503.201 544.356 503.455L547.392 502.444ZM543.498 491.714C543.398 491.461 543.298 491.209 543.197 490.957L540.226 492.143C540.325 492.392 540.423 492.64 540.521 492.889L543.498 491.714ZM538.995 481.218C538.881 480.972 538.765 480.725 538.649 480.479L535.754 481.843C535.868 482.084 535.982 482.326 536.094 482.569L538.995 481.218ZM533.834 471.016C533.703 470.776 533.571 470.537 533.438 470.298L530.641 471.853C530.771 472.087 530.9 472.322 531.029 472.556L533.834 471.016ZM527.962 461.189C527.813 460.96 527.663 460.731 527.513 460.503L524.84 462.262C524.987 462.485 525.133 462.709 525.279 462.933L527.962 461.189ZM521.33 451.843C521.162 451.627 520.994 451.412 520.825 451.197L518.309 453.173C518.473 453.383 518.637 453.593 518.801 453.804L521.33 451.843ZM513.898 443.106C513.712 442.906 513.524 442.707 513.336 442.509L511.014 444.71C511.197 444.903 511.379 445.097 511.561 445.291L513.898 443.106ZM505.647 435.121C505.441 434.941 505.234 434.762 505.026 434.584L502.941 437.011C503.143 437.184 503.343 437.358 503.544 437.533L505.647 435.121ZM496.589 428.046C496.363 427.889 496.137 427.734 495.91 427.579L494.105 430.221C494.325 430.371 494.544 430.522 494.762 430.674L496.589 428.046ZM486.778 422.03C486.535 421.9 486.291 421.77 486.047 421.642L484.559 424.475C484.795 424.599 485.031 424.724 485.266 424.85L486.778 422.03ZM476.325 417.196C476.074 417.097 475.822 416.999 475.569 416.903L474.423 419.89C474.668 419.984 474.912 420.079 475.155 420.175L476.325 417.196ZM465.404 413.62C465.143 413.551 464.882 413.483 464.62 413.416L463.824 416.515C464.078 416.581 464.331 416.647 464.584 416.714L465.404 413.62ZM454.156 411.294C453.89 411.254 453.624 411.215 453.356 411.177L452.902 414.344C453.161 414.381 453.42 414.419 453.678 414.458L454.156 411.294ZM442.731 410.161C442.464 410.148 442.196 410.135 441.928 410.124L441.791 413.321C442.053 413.332 442.313 413.344 442.574 413.357L442.731 410.161ZM431.249 410.125C430.984 410.136 430.718 410.147 430.452 410.16L430.603 413.356C430.863 413.344 431.123 413.333 431.382 413.322L431.249 410.125ZM419.814 411.07C419.545 411.103 419.276 411.137 419.006 411.172L419.413 414.346C419.677 414.312 419.94 414.279 420.204 414.247L419.814 411.07ZM408.58 412.861C408.307 412.914 408.034 412.968 407.76 413.023L408.387 416.161C408.656 416.107 408.925 416.054 409.193 416.002L408.58 412.861ZM397.493 415.39C397.228 415.459 396.963 415.529 396.697 415.599L397.516 418.693C397.778 418.623 398.039 418.555 398.299 418.487L397.493 415.39ZM386.535 418.574C386.279 418.656 386.023 418.738 385.767 418.821L386.753 421.865C387.006 421.784 387.258 421.702 387.51 421.622L386.535 418.574ZM375.669 422.351C375.423 422.443 375.177 422.536 374.931 422.629L376.063 425.622C376.306 425.53 376.549 425.439 376.791 425.348L375.669 422.351ZM365.177 426.543C364.923 426.651 364.668 426.759 364.414 426.868L365.671 429.811C365.923 429.703 366.174 429.596 366.426 429.49L365.177 426.543ZM354.808 431.178C354.566 431.292 354.323 431.406 354.079 431.521L355.447 434.414C355.688 434.301 355.928 434.187 356.168 434.074L354.808 431.178ZM344.461 436.261C344.335 436.325 344.21 436.389 344.085 436.454L345.548 439.3C345.672 439.236 345.796 439.172 345.92 439.109L344.461 436.261ZM344.085 436.454C343.96 436.518 343.834 436.583 343.709 436.647L345.174 439.492C345.299 439.428 345.423 439.364 345.548 439.3L344.085 436.454ZM334.172 441.726C333.934 441.857 333.696 441.988 333.458 442.12L335.008 444.92C335.243 444.789 335.479 444.659 335.715 444.529L334.172 441.726ZM324.441 447.277C324.211 447.413 323.982 447.549 323.753 447.686L325.388 450.436C325.615 450.301 325.842 450.166 326.07 450.032L324.441 447.277ZM314.556 453.356C314.327 453.502 314.099 453.648 313.871 453.795L315.602 456.486C315.828 456.341 316.054 456.196 316.28 456.051L314.556 453.356ZM305.196 459.586C304.964 459.747 304.733 459.907 304.503 460.068L306.333 462.693C306.561 462.534 306.79 462.375 307.019 462.216L305.196 459.586ZM295.825 466.372C295.611 466.535 295.397 466.697 295.183 466.86L297.123 469.405C297.334 469.245 297.545 469.084 297.757 468.923L295.825 466.372ZM286.909 473.443C286.696 473.621 286.483 473.799 286.27 473.977L288.325 476.43C288.534 476.255 288.745 476.079 288.955 475.904L286.909 473.443ZM278.33 480.945C278.135 481.125 277.941 481.304 277.748 481.483L279.924 483.829C280.115 483.653 280.306 483.476 280.498 483.299L278.33 480.945ZM270.072 488.985C269.883 489.181 269.694 489.376 269.506 489.571L271.813 491.789C271.998 491.597 272.183 491.405 272.37 491.213L270.072 488.985ZM262.389 497.41C262.208 497.622 262.028 497.834 261.849 498.045L264.291 500.114C264.467 499.906 264.643 499.698 264.821 499.491L262.389 497.41ZM255.284 506.311C255.123 506.528 254.963 506.745 254.804 506.962L257.383 508.856C257.539 508.643 257.696 508.431 257.854 508.219L255.284 506.311ZM248.757 515.848C248.614 516.075 248.472 516.303 248.33 516.531L251.05 518.217C251.188 517.994 251.327 517.772 251.467 517.549L248.757 515.848ZM243.054 525.843C242.929 526.085 242.805 526.328 242.683 526.57L245.538 528.015C245.657 527.779 245.778 527.543 245.899 527.306L243.054 525.843ZM238.276 536.297C238.173 536.552 238.072 536.807 237.972 537.063L240.951 538.232C241.048 537.984 241.147 537.735 241.246 537.487L238.276 536.297ZM234.54 547.174C234.464 547.44 234.389 547.706 234.315 547.971L237.398 548.83C237.47 548.572 237.543 548.314 237.616 548.056L234.54 547.174ZM231.969 558.4C231.922 558.673 231.877 558.946 231.832 559.218L234.99 559.734C235.033 559.47 235.078 559.206 235.123 558.941L231.969 558.4ZM230.669 569.857C230.653 570.133 230.639 570.409 230.626 570.685L233.823 570.835C233.835 570.568 233.849 570.301 233.864 570.033L230.669 569.857ZM230.712 581.396C230.73 581.672 230.749 581.948 230.768 582.223L233.96 581.993C233.941 581.727 233.923 581.461 233.906 581.194L230.712 581.396ZM232.133 592.852C232.183 593.124 232.234 593.394 232.287 593.665L235.428 593.054C235.377 592.792 235.327 592.531 235.279 592.269L232.133 592.852ZM234.916 604.056C234.998 604.319 235.082 604.581 235.166 604.842L238.212 603.86C238.13 603.607 238.049 603.354 237.97 603.1L234.916 604.056ZM239.013 614.846C239.126 615.097 239.24 615.347 239.354 615.597L242.262 614.261C242.151 614.02 242.042 613.778 241.933 613.535L239.013 614.846ZM244.349 625.079C244.49 625.314 244.632 625.549 244.774 625.783L247.507 624.118C247.369 623.891 247.232 623.664 247.095 623.436L244.349 625.079ZM250.833 634.621C251 634.839 251.167 635.056 251.336 635.271L253.859 633.303C253.696 633.094 253.533 632.884 253.372 632.673L250.833 634.621ZM258.37 643.354C258.561 643.551 258.753 643.747 258.945 643.943L261.225 641.697C261.039 641.508 260.853 641.318 260.668 641.127L258.37 643.354ZM266.873 651.164C267.087 651.339 267.301 651.512 267.517 651.685L269.519 649.189C269.311 649.022 269.103 648.854 268.896 648.685L266.873 651.164ZM276.245 657.923C276.478 658.07 276.712 658.217 276.946 658.362L278.634 655.643C278.407 655.503 278.182 655.361 277.956 655.219L276.245 657.923ZM286.379 663.484C286.629 663.601 286.879 663.717 287.129 663.831L288.46 660.922C288.219 660.811 287.978 660.699 287.737 660.587L286.379 663.484ZM297.155 667.688C297.418 667.771 297.681 667.852 297.944 667.932L298.872 664.869C298.619 664.792 298.366 664.714 298.113 664.635L297.155 667.688ZM308.421 670.357C308.693 670.401 308.965 670.443 309.237 670.484L309.711 667.319C309.45 667.28 309.189 667.24 308.929 667.198L308.421 670.357ZM319.981 671.309C320.258 671.31 320.534 671.309 320.811 671.307L320.784 668.107C320.52 668.109 320.256 668.11 319.991 668.109L319.981 671.309ZM331.552 670.392C331.825 670.347 332.098 670.301 332.37 670.252L331.813 667.101C331.554 667.147 331.294 667.191 331.033 667.234L331.552 670.392ZM342.808 667.54C343.07 667.449 343.332 667.357 343.594 667.262L342.508 664.252C342.259 664.342 342.009 664.43 341.759 664.517L342.808 667.54ZM353.422 662.816C353.667 662.681 353.912 662.545 354.156 662.407L352.581 659.621C352.348 659.753 352.115 659.883 351.881 660.012L353.422 662.816ZM363.12 656.417C363.342 656.244 363.564 656.069 363.786 655.892L361.792 653.389C361.58 653.559 361.367 653.726 361.153 653.892L363.12 656.417ZM371.725 648.642C371.823 648.54 371.922 648.437 372.02 648.334L369.702 646.127C369.608 646.226 369.513 646.325 369.418 646.424L371.725 648.642ZM372.02 648.334C372.115 648.234 372.209 648.134 372.303 648.034L369.971 645.843C369.882 645.938 369.793 646.033 369.702 646.127L372.02 648.334ZM378.867 639.737C379.017 639.509 379.166 639.28 379.312 639.051L376.616 637.327C376.478 637.544 376.337 637.761 376.195 637.976L378.867 639.737ZM384.196 629.666C384.3 629.416 384.401 629.165 384.5 628.914L381.524 627.737C381.43 627.974 381.335 628.212 381.237 628.449L384.196 629.666ZM387.498 618.76C387.552 618.493 387.603 618.226 387.653 617.959L384.507 617.372C384.46 617.625 384.411 617.878 384.361 618.131L387.498 618.76ZM388.67 607.431C388.672 607.159 388.673 606.887 388.671 606.616L385.471 606.631C385.473 606.888 385.472 607.146 385.47 607.403L388.67 607.431ZM387.703 596.08C387.655 595.813 387.605 595.547 387.553 595.281L384.412 595.891C384.461 596.143 384.509 596.396 384.554 596.649L387.703 596.08ZM384.627 585.109C384.528 584.855 384.428 584.602 384.327 584.35L381.359 585.547C381.455 585.785 381.55 586.024 381.642 586.264L384.627 585.109ZM379.466 574.933C379.318 574.703 379.169 574.475 379.018 574.248L376.354 576.02C376.496 576.234 376.636 576.449 376.776 576.665L379.466 574.933ZM372.26 566.049C372.065 565.858 371.868 565.667 371.669 565.479L369.467 567.801C369.653 567.977 369.837 568.155 370.02 568.334L372.26 566.049ZM363.151 559.072C362.914 558.934 362.676 558.798 362.436 558.664L360.877 561.459C361.099 561.583 361.32 561.709 361.54 561.837L363.151 559.072ZM352.548 554.641C352.282 554.569 352.015 554.5 351.746 554.433L350.973 557.538C351.222 557.6 351.469 557.664 351.716 557.731L352.548 554.641ZM341.172 553.121C340.899 553.12 340.625 553.12 340.351 553.123L340.387 556.323C340.643 556.32 340.898 556.32 341.153 556.321L341.172 553.121ZM329.788 554.376C329.652 554.406 329.517 554.437 329.381 554.468L330.099 557.586C330.227 557.557 330.355 557.528 330.483 557.499L329.788 554.376Z" fill="white"/>
<path d="M537.601 977.6C557.551 924.781 667.318 826.763 946.791 857.242C1296.13 895.341 1534.23 1035.61 1920 830.4" stroke="white" stroke-width="3.2" stroke-linecap="round" stroke-dasharray="0.8 10.4"/>
</g>
</svg>
